<svg width="39.000000" height="36.000000" viewBox="0 0 39 36" fill="none" xmlns="http://www.w3.org/2000/svg" xmlns:xlink="http://www.w3.org/1999/xlink">
	<desc>
			Created with Pixso.
	</desc>
	<defs>
		<clipPath id="clip88_183">
			<rect id="svg" width="39.000000" height="36.000000" fill="white" fill-opacity="0"/>
		</clipPath>
		<linearGradient x1="33.953873" y1="23.644979" x2="5.786744" y2="23.905882" id="paint_linear_88_184_0" gradientUnits="userSpaceOnUse">
			<stop stop-color="#3585A3"/>
			<stop offset="1.000000" stop-color="#00DEAE"/>
		</linearGradient>
		<linearGradient x1="6.677247" y1="12.454466" x2="31.700281" y2="11.802069" id="paint_linear_88_185_0" gradientUnits="userSpaceOnUse">
			<stop stop-color="#3585A3"/>
			<stop offset="1.000000" stop-color="#00DEAE"/>
		</linearGradient>
	</defs>
	<g clip-path="url(#clip88_183)">
		<path id="path" d="M34.56 17.92L28.05 16.72L27.31 18L25.48 21.18L20.72 29.42C20.51 29.78 19.96 29.63 19.96 29.21L19.96 22.29L19.96 21.54C19.96 21.15 19.69 20.81 19.3 20.74L11.89 19.28L5.25 18.07C5.26 18.41 5.35 18.75 5.5 19.07L10.98 28.58C11.74 29.9 13.15 30.72 14.68 30.72L25.18 30.7C26.71 30.7 28.12 29.88 28.88 28.55L34.24 19.21C34.46 18.81 34.57 18.36 34.56 17.92Z" fill="url(#paint_linear_88_184_0)" fill-opacity="1.000000" fill-rule="nonzero"/>
		<path id="path" d="M12.64 17.98L14.47 14.8L19.2 6.59C19.41 6.23 19.96 6.38 19.96 6.79L19.96 14.47C19.96 14.86 20.24 15.19 20.62 15.27L28.05 16.72L34.56 17.92C34.55 17.59 34.48 17.27 34.34 16.97C34.31 16.9 34.27 16.82 34.23 16.76L28.87 7.42C28.1 6.09 26.7 5.27 25.17 5.27L14.63 5.27C13.1 5.27 11.69 6.09 10.93 7.42L5.58 16.77C5.37 17.15 5.24 17.64 5.25 18.07L11.89 19.28L12.64 17.98Z" fill="url(#paint_linear_88_185_0)" fill-opacity="1.000000" fill-rule="nonzero"/>
	</g>
</svg>
